<svg id="Layer_1" data-name="Layer 1" xmlns="http://www.w3.org/2000/svg" viewBox="0 0 16 16"><defs><style>.cls-1{fill:#0e4d5a;}.cls-2{fill:#f89b54;}</style></defs><rect class="cls-1" width="16" height="16"/><path class="cls-2" d="M8,8.42H8c-1,0-2.09-1.07-2.11-3.1v0C6.3,3.45,7.08,2.35,8,2.35H8c.9,0,1.68,1.1,2.08,2.95C10.05,7.47,9,8.42,8,8.42ZM6.15,5.33c0,1.86,1,2.84,1.86,2.84H8c.85,0,1.78-.89,1.82-2.85C9.47,3.65,8.77,2.6,8,2.6H8C7.22,2.6,6.52,3.65,6.15,5.33Z"/><path class="cls-2" d="M4.64,13.08a1.41,1.41,0,0,1-1.06-.39c-.6-.64-.36-1.92.64-3.42A1.21,1.21,0,0,1,4.43,9C6,7.69,7.34,7.81,8,8.51s.72,2.13-.71,3.57h0a1.64,1.64,0,0,1-.25.19A5,5,0,0,1,4.64,13.08ZM6.73,8.25a3.4,3.4,0,0,0-2.13,1,.77.77,0,0,0-.17.19c-.92,1.38-1.17,2.57-.66,3.11s1.72.37,3.15-.47a.9.9,0,0,0,.19-.15h0c1.31-1.32,1.29-2.59.71-3.22A1.45,1.45,0,0,0,6.73,8.25Z"/><path class="cls-2" d="M11.23,13.13a5,5,0,0,1-2.6-1.05c-1.47-1.61-1.37-3-.64-3.7s2.26-.65,3.66.82l0,0c1,1.61,1.16,2.95.5,3.58A1.35,1.35,0,0,1,11.23,13.13Zm-2-4.94a1.52,1.52,0,0,0-1,.37c-.62.58-.69,1.87.63,3.33,1.41,1,2.65,1.26,3.21.73s.36-1.78-.54-3.26A3.31,3.31,0,0,0,9.19,8.19Z"/><path class="cls-2" d="M11.1,10.56C8.93,10.45,8,9.39,8,8.39s1.09-2,3-2h.15c1.83.45,2.91,1.27,2.89,2.18S13,10.22,11.1,10.56Zm0-3.93c-1.79,0-2.76.88-2.79,1.77s.83,1.81,2.8,1.91c1.68-.31,2.75-1,2.78-1.76s-1-1.51-2.68-1.92Z"/><path class="cls-2" d="M4.85,10.39H4.7C2.87,9.93,1.79,9.12,1.82,8.2s1.15-1.65,3-2c2.17.1,3.1,1.16,3.06,2.16S6.8,10.39,4.85,10.39Zm-.1-.25h.1c1.79,0,2.76-.89,2.79-1.78S6.81,6.55,4.85,6.45c-1.68.32-2.76,1-2.78,1.76S3.07,9.72,4.75,10.14Z"/></svg>