<svg id="Layer_1" data-name="Layer 1" xmlns="http://www.w3.org/2000/svg" viewBox="0 0 16 16"><defs><style>.cls-1{fill:#0e4d5a;}.cls-2{fill:#f89b54;}</style></defs><rect class="cls-1" width="16" height="16"/><path class="cls-2" d="M8.11,9.12h0C6.89,9.11,5.57,7.82,5.55,5V4.92C6,2.47,7,1,8.09,1h0c1.13,0,2.05,1.43,2.53,3.92C10.58,7.84,9.33,9.12,8.11,9.12ZM6.15,5c0,2.31,1,3.51,2,3.52h0C9,8.52,10,7.41,10,5,9.55,2.5,8.68,1.61,8.09,1.61h0C7.49,1.61,6.63,2.5,6.15,5Z"/><path class="cls-2" d="M4.27,15.12a1.67,1.67,0,0,1-1.21-.44c-.87-.82-.65-2.57.59-4.67a1.56,1.56,0,0,1,.27-.35C5.74,7.88,7.28,8.1,8.05,8.83c1,.92,1.08,3-.64,4.94A2,2,0,0,1,7.1,14,5.48,5.48,0,0,1,4.27,15.12ZM6.66,8.89a3.56,3.56,0,0,0-2.32,1.2.92.92,0,0,0-.17.22c-1.06,1.79-1.33,3.33-.7,3.94s1.83.26,3.29-.71a.82.82,0,0,0,.2-.17H7c1.48-1.68,1.45-3.37.68-4.1A1.36,1.36,0,0,0,6.66,8.89Z"/><path class="cls-2" d="M11.77,15.18A5.46,5.46,0,0,1,8.7,13.79c-1.79-2.22-1.62-4.25-.56-5.12s2.61-.7,4.24,1.22l0,0c1.21,2.26,1.37,4.09.42,4.88A1.58,1.58,0,0,1,11.77,15.18ZM9.46,8.81a1.48,1.48,0,0,0-.94.32c-.83.69-.9,2.36.6,4.24,1.43,1.1,2.72,1.5,3.33,1s.69-1.78-.55-4.11A3.43,3.43,0,0,0,9.46,8.81Z"/><path class="cls-2" d="M11.62,11.87h0C9,11.72,7.93,10.23,8,8.91S9.32,6.17,11.74,6.2h.08c2.16.6,3.43,1.71,3.39,3s-1.37,2.24-3.55,2.69Zm0-5.07c-2,0-3,1.09-3,2.13s.87,2.2,3,2.33c1.84-.39,3-1.2,3-2.11S13.53,7.32,11.69,6.8Z"/><path class="cls-2" d="M4.5,11.64H4.29C2.12,11,.85,9.92.9,8.67S2.27,6.44,4.45,6h.08c2.55.14,3.65,1.63,3.6,2.95S6.81,11.64,4.5,11.64ZM4.41,11c2.07,0,3.08-1.07,3.12-2.13s-.87-2.2-3-2.33c-1.84.39-3,1.2-3,2.11S2.58,10.52,4.41,11Z"/></svg>